HIERARCHY
ROOT Hips
{
	OFFSET 0.000000 97.167313 0.000000
	CHANNELS 6 Xposition Yposition Zposition Xrotation Yrotation Zrotation
	JOINT Spine
	{
		OFFSET 0.000000 13.784798 0.064400
		CHANNELS 3 Xrotation Yrotation Zrotation
		JOINT Spine1
		{
			OFFSET 0.000000 12.037903 0.404700
			CHANNELS 3 Xrotation Yrotation Zrotation
			JOINT Spine2
			{
				OFFSET 0.000000 17.795601 0.420200
				CHANNELS 3 Xrotation Yrotation Zrotation
				JOINT Neck
				{
					OFFSET 0.000000 39.131302 11.954600
					CHANNELS 3 Xrotation Yrotation Zrotation
					JOINT Head
					{
						OFFSET 0.000000 14.456192 15.627699
						CHANNELS 3 Xrotation Yrotation Zrotation
						JOINT HeadTop_End
						{
							OFFSET 0.000000 15.703506 7.603401
							CHANNELS 3 Xrotation Yrotation Zrotation
							End Site
							{
								OFFSET 0.000000 17.447403 0.000000
							}
						}
					}
				}
				JOINT LeftShoulder
				{
					OFFSET 17.399500 24.608795 1.168800
					CHANNELS 3 Xrotation Yrotation Zrotation
					JOINT LeftArm
					{
						OFFSET 18.980635 5.765305 1.818600
						CHANNELS 3 Xrotation Yrotation Zrotation
						JOINT LeftForeArm
						{
							OFFSET 49.290169 0.000000 0.000000
							CHANNELS 3 Xrotation Yrotation Zrotation
							JOINT LeftHand
							{
								OFFSET 31.562012 0.000000 0.000000
								CHANNELS 3 Xrotation Yrotation Zrotation
								JOINT LeftHandThumb1
								{
									OFFSET 6.133995 -4.388519 7.076070
									CHANNELS 3 Xrotation Yrotation Zrotation
									JOINT LeftHandThumb2
									{
										OFFSET 6.037666 -3.485840 3.485847
										CHANNELS 3 Xrotation Yrotation Zrotation
										JOINT LeftHandThumb3
										{
											OFFSET 6.496506 -3.750763 3.750761
											CHANNELS 3 Xrotation Yrotation Zrotation
											JOINT LeftHandThumb4
											{
												OFFSET 5.616882 -3.242905 3.242910
												CHANNELS 3 Xrotation Yrotation Zrotation
												End Site
												{
													OFFSET -1.254608 7.132141 0.375429
												}
											}
										}
									}
								}
								JOINT LeftHandPinky1
								{
									OFFSET 18.920792 -0.453171 -11.426712
									CHANNELS 3 Xrotation Yrotation Zrotation
									JOINT LeftHandPinky2
									{
										OFFSET 4.919586 0.000000 0.000000
										CHANNELS 3 Xrotation Yrotation Zrotation
										JOINT LeftHandPinky3
										{
											OFFSET 5.233047 0.000000 0.000000
											CHANNELS 3 Xrotation Yrotation Zrotation
											JOINT LeftHandPinky4
											{
												OFFSET 5.571716 0.000000 0.000000
												CHANNELS 3 Xrotation Yrotation Zrotation
												End Site
												{
													OFFSET -3.459808 4.342407 -0.466164
												}
											}
										}
									}
								}
								JOINT LeftHandRing1
								{
									OFFSET 22.726120 -0.094986 -6.500475
									CHANNELS 3 Xrotation Yrotation Zrotation
									JOINT LeftHandRing2
									{
										OFFSET 6.408615 0.000000 0.000000
										CHANNELS 3 Xrotation Yrotation Zrotation
										JOINT LeftHandRing3
										{
											OFFSET 6.150223 0.000000 0.000000
											CHANNELS 3 Xrotation Yrotation Zrotation
											JOINT LeftHandRing4
											{
												OFFSET 6.145386 0.000000 0.000000
												CHANNELS 3 Xrotation Yrotation Zrotation
												End Site
												{
													OFFSET -3.671402 4.923981 -0.202372
												}
											}
										}
									}
								}
								JOINT LeftHandMiddle1
								{
									OFFSET 23.373947 0.000000 0.000001
									CHANNELS 3 Xrotation Yrotation Zrotation
									JOINT LeftHandMiddle2
									{
										OFFSET 6.996567 0.000000 0.000000
										CHANNELS 3 Xrotation Yrotation Zrotation
										JOINT LeftHandMiddle3
										{
											OFFSET 7.015945 0.000000 0.000000
											CHANNELS 3 Xrotation Yrotation Zrotation
											JOINT LeftHandMiddle4
											{
												OFFSET 7.721573 0.000000 0.000000
												CHANNELS 3 Xrotation Yrotation Zrotation
												End Site
												{
													OFFSET -4.651108 6.158463 0.251582
												}
											}
										}
									}
								}
								JOINT LeftHandIndex1
								{
									OFFSET 21.310577 -0.490082 6.209344
									CHANNELS 3 Xrotation Yrotation Zrotation
									JOINT LeftHandIndex2
									{
										OFFSET 7.536453 0.000000 0.000000
										CHANNELS 3 Xrotation Yrotation Zrotation
										JOINT LeftHandIndex3
										{
											OFFSET 7.512344 0.000000 0.000000
											CHANNELS 3 Xrotation Yrotation Zrotation
											JOINT LeftHandIndex4
											{
												OFFSET 10.212402 0.000000 0.000001
												CHANNELS 3 Xrotation Yrotation Zrotation
												End Site
												{
													OFFSET -5.180801 8.690506 1.388433
												}
											}
										}
									}
								}
							}
						}
					}
				}
				JOINT RightShoulder
				{
					OFFSET -17.399500 24.608795 1.168800
					CHANNELS 3 Xrotation Yrotation Zrotation
					JOINT RightArm
					{
						OFFSET -18.980635 5.765305 1.818600
						CHANNELS 3 Xrotation Yrotation Zrotation
						JOINT RightForeArm
						{
							OFFSET -49.290169 0.000000 0.000000
							CHANNELS 3 Xrotation Yrotation Zrotation
							JOINT RightHand
							{
								OFFSET -31.562012 0.000000 0.000000
								CHANNELS 3 Xrotation Yrotation Zrotation
								JOINT RightHandThumb1
								{
									OFFSET -6.133995 -4.388519 7.076070
									CHANNELS 3 Xrotation Yrotation Zrotation
									JOINT RightHandThumb2
									{
										OFFSET -6.037666 -3.485840 3.485847
										CHANNELS 3 Xrotation Yrotation Zrotation
										JOINT RightHandThumb3
										{
											OFFSET -6.496506 -3.750763 3.750761
											CHANNELS 3 Xrotation Yrotation Zrotation
											JOINT RightHandThumb4
											{
												OFFSET -5.616882 -3.242905 3.242910
												CHANNELS 3 Xrotation Yrotation Zrotation
												End Site
												{
													OFFSET 1.254608 7.132141 0.375429
												}
											}
										}
									}
								}
								JOINT RightHandIndex1
								{
									OFFSET -21.310577 -0.490082 6.209344
									CHANNELS 3 Xrotation Yrotation Zrotation
									JOINT RightHandIndex2
									{
										OFFSET -7.536453 0.000000 0.000000
										CHANNELS 3 Xrotation Yrotation Zrotation
										JOINT RightHandIndex3
										{
											OFFSET -7.512344 0.000000 0.000000
											CHANNELS 3 Xrotation Yrotation Zrotation
											JOINT RightHandIndex4
											{
												OFFSET -10.212402 0.000000 0.000001
												CHANNELS 3 Xrotation Yrotation Zrotation
												End Site
												{
													OFFSET 5.180801 8.690506 1.388433
												}
											}
										}
									}
								}
								JOINT RightHandMiddle1
								{
									OFFSET -23.373947 0.000000 0.000001
									CHANNELS 3 Xrotation Yrotation Zrotation
									JOINT RightHandMiddle2
									{
										OFFSET -6.996567 0.000000 0.000000
										CHANNELS 3 Xrotation Yrotation Zrotation
										JOINT RightHandMiddle3
										{
											OFFSET -7.015945 0.000000 0.000000
											CHANNELS 3 Xrotation Yrotation Zrotation
											JOINT RightHandMiddle4
											{
												OFFSET -7.721573 0.000000 0.000000
												CHANNELS 3 Xrotation Yrotation Zrotation
												End Site
												{
													OFFSET 4.651108 6.158463 0.251582
												}
											}
										}
									}
								}
								JOINT RightHandRing1
								{
									OFFSET -22.726120 -0.094986 -6.500475
									CHANNELS 3 Xrotation Yrotation Zrotation
									JOINT RightHandRing2
									{
										OFFSET -6.408615 0.000000 0.000000
										CHANNELS 3 Xrotation Yrotation Zrotation
										JOINT RightHandRing3
										{
											OFFSET -6.150223 0.000000 0.000000
											CHANNELS 3 Xrotation Yrotation Zrotation
											JOINT RightHandRing4
											{
												OFFSET -6.145386 0.000000 0.000000
												CHANNELS 3 Xrotation Yrotation Zrotation
												End Site
												{
													OFFSET 3.671402 4.923981 -0.202372
												}
											}
										}
									}
								}
								JOINT RightHandPinky1
								{
									OFFSET -18.920792 -0.453171 -11.426712
									CHANNELS 3 Xrotation Yrotation Zrotation
									JOINT RightHandPinky2
									{
										OFFSET -4.919586 0.000000 0.000000
										CHANNELS 3 Xrotation Yrotation Zrotation
										JOINT RightHandPinky3
										{
											OFFSET -5.233047 0.000000 0.000000
											CHANNELS 3 Xrotation Yrotation Zrotation
											JOINT RightHandPinky4
											{
												OFFSET -5.571716 0.000000 0.000000
												CHANNELS 3 Xrotation Yrotation Zrotation
												End Site
												{
													OFFSET 3.459808 4.342407 -0.466164
												}
											}
										}
									}
								}
							}
						}
					}
				}
			}
		}
	}
	JOINT LeftUpLeg
	{
		OFFSET 19.899099 -7.885101 -3.429500
		CHANNELS 3 Xrotation Yrotation Zrotation
		JOINT LeftLeg
		{
			OFFSET 1.745560 -36.997807 10.304700
			CHANNELS 3 Xrotation Yrotation Zrotation
			JOINT LeftFoot
			{
				OFFSET -1.745558 -29.803308 -13.615400
				CHANNELS 3 Xrotation Yrotation Zrotation
				JOINT LeftToeBase
				{
					OFFSET 1.181900 -18.539904 15.226099
					CHANNELS 3 Xrotation Yrotation Zrotation
					JOINT LeftToe_End
					{
						OFFSET -0.863701 1.402801 16.534700
						CHANNELS 3 Xrotation Yrotation Zrotation
						End Site
						{
							OFFSET 0.000000 16.616566 0.000000
						}
					}
				}
			}
		}
	}
	JOINT RightUpLeg
	{
		OFFSET -19.899099 -7.885101 -3.429500
		CHANNELS 3 Xrotation Yrotation Zrotation
		JOINT RightLeg
		{
			OFFSET -1.745560 -36.997807 10.304700
			CHANNELS 3 Xrotation Yrotation Zrotation
			JOINT RightFoot
			{
				OFFSET 1.745558 -29.803308 -13.615400
				CHANNELS 3 Xrotation Yrotation Zrotation
				JOINT RightToeBase
				{
					OFFSET -1.181900 -18.539904 15.226099
					CHANNELS 3 Xrotation Yrotation Zrotation
					JOINT RightToe_End
					{
						OFFSET 0.863701 1.402801 16.534700
						CHANNELS 3 Xrotation Yrotation Zrotation
						End Site
						{
							OFFSET 0.000000 16.616566 0.000000
						}
					}
				}
			}
		}
	}
}
MOTION
Frames: 4
Frame Time: 0.033333
-8.932209 77.698463 3.965476 -6.571626 -62.096125 -5.116173 30.082359 5.846259 -3.957402 9.767573 2.397583 -1.052227 9.757329 2.402537 -1.074603 -7.189602 -16.123619 -2.598320 8.679984 34.432596 -11.961836 -0.000003 0.000000 0.000002 0.479749 4.402260 -7.079196 -24.949902 21.118610 -16.703969 -0.923313 -58.527140 9.308200 -53.608208 -4.015074 5.538259 3.131978 14.216319 -19.086509 1.083732 18.441910 20.543481 1.420080 38.788337 21.436009 0.000001 0.000001 0.000000 -6.497484 19.493551 -63.820598 10.929997 12.439959 -91.866290 5.624296 12.849658 -61.873830 0.000003 -0.000001 -0.000006 -0.127271 16.605597 -63.663128 7.055526 8.627832 -74.067480 7.032528 10.044522 -73.182253 0.000001 0.000002 0.000002 3.456827 11.185550 -71.730763 6.555757 9.517398 -73.061659 5.164478 7.559216 -62.819579 0.000000 0.000000 0.000008 7.357293 6.884753 -66.751534 6.476872 7.446373 -77.523412 4.627899 10.066106 -62.797961 0.000002 0.000003 0.000001 0.677606 4.991927 -2.932018 -23.369812 -8.178617 -3.268454 0.010188 20.453215 -0.021869 -0.349098 3.111605 15.031218 -0.512444 3.948892 3.623354 5.409282 -26.719611 -10.884806 -0.285878 -3.993377 -3.634584 0.000001 0.000002 0.000001 0.262968 4.636847 -16.229393 0.578112 -2.470029 22.017567 5.941249 -9.795931 22.490563 -0.000003 -0.000001 -0.000001 0.129531 -2.409848 -5.587140 1.985945 -6.402875 38.255043 0.245482 -1.154097 12.082743 0.000003 0.000001 -0.000009 -0.224158 -10.934102 3.706565 1.595735 -4.556989 33.181896 0.595543 -3.866263 19.471811 0.000003 -0.000002 -0.000005 -0.280184 -19.559900 5.042774 2.617123 -5.616973 42.886379 0.751327 -4.554893 23.311198 0.000002 -0.000002 0.000002 -44.719038 13.534131 22.696457 80.277836 -9.682442 1.010230 26.505307 -6.358338 -6.657601 -16.634835 -2.180409 7.673524 -0.000002 0.000000 0.000000 -90.731147 -9.068988 0.484701 115.953239 -3.075277 -10.772407 36.270190 2.966554 12.517401 0.170571 0.000111 -0.000032 0.000002 -0.000001 -0.000001 
-8.997128 77.732399 3.980673 -6.516595 -62.025535 -5.048527 30.074204 5.957226 -4.010507 9.720154 2.441477 -1.058879 9.731146 2.433565 -1.079302 -7.157199 -16.144624 -2.588304 8.503700 34.369713 -11.819352 -0.000000 0.000000 -0.000000 0.411309 4.899841 -6.605795 -25.973681 21.959886 -16.230486 -0.957302 -59.163536 9.256911 -53.389564 -4.726017 3.896333 3.131981 14.216320 -19.086504 1.083740 18.441910 20.543484 1.420079 38.788337 21.436007 -0.000001 0.000001 -0.000001 -6.497479 19.493553 -63.820598 10.929995 12.439959 -91.866277 5.624293 12.849665 -61.873830 0.000001 0.000000 -0.000002 -0.127267 16.605600 -63.663128 7.055519 8.627839 -74.067480 7.032523 10.044527 -73.182253 -0.000002 0.000002 0.000000 3.456835 11.185550 -71.730756 6.555754 9.517401 -73.061659 5.164477 7.559221 -62.819579 -0.000003 -0.000004 0.000004 7.357291 6.884753 -66.751528 6.476865 7.446372 -77.523419 4.627895 10.066108 -62.797961 0.000000 0.000000 -0.000002 0.634541 4.404520 -3.716215 -23.559858 -10.235272 -3.921907 0.010844 21.750642 -0.030292 -1.844840 1.153276 13.781903 -0.512444 3.948892 3.623356 5.409276 -26.719608 -10.884808 -0.285874 -3.993378 -3.634587 -0.000001 -0.000001 0.000006 0.276263 4.681755 -16.526647 0.470093 -2.188726 19.945114 6.628532 -10.376744 21.722332 -0.000000 -0.000003 -0.000002 0.135904 -2.347009 -5.971772 1.865877 -6.246488 37.026469 0.232367 -1.091737 11.697690 -0.000000 0.000002 -0.000008 -0.263080 -10.930768 3.369572 1.543683 -4.476002 32.614317 0.577019 -3.812746 19.143582 0.000002 -0.000001 -0.000005 -0.285260 -19.509728 4.747591 2.484285 -5.471700 41.730291 0.732292 -4.510531 23.015830 -0.000000 -0.000000 0.000002 -44.540780 13.510826 22.764279 80.147345 -9.496916 0.962689 26.300132 -6.678559 -6.558112 -16.919205 -2.237863 7.756262 0.000003 -0.000004 0.000003 -90.992429 -9.007034 0.530500 116.062727 -3.142112 -10.792409 36.447098 3.022973 12.645231 0.166195 0.000119 0.000002 0.000000 0.000001 0.000000 
-9.061085 77.759872 3.994480 -6.522196 -61.872245 -5.057539 30.076957 6.000886 -4.031841 9.702883 2.459820 -1.061664 9.710963 2.446401 -1.081271 -7.115310 -16.201103 -2.552965 8.219810 34.098449 -11.472647 -0.000003 -0.000002 0.000002 0.302927 5.126604 -6.172915 -27.021533 22.217707 -15.401421 -0.963686 -59.403070 9.239814 -53.252113 -5.311218 2.379473 3.131985 14.216316 -19.086504 1.083738 18.441910 20.543486 1.420084 38.788344 21.436013 -0.000000 0.000001 -0.000002 -6.497477 19.493553 -63.820598 10.929994 12.439958 -91.866283 5.624300 12.849666 -61.873823 0.000002 0.000005 -0.000000 -0.127266 16.605597 -63.663128 7.055527 8.627835 -74.067487 7.032527 10.044525 -73.182253 -0.000001 -0.000001 0.000005 3.456835 11.185548 -71.730763 6.555753 9.517402 -73.061659 5.164481 7.559215 -62.819579 -0.000002 -0.000000 0.000008 7.357291 6.884750 -66.751528 6.476867 7.446373 -77.523412 4.627893 10.066111 -62.797961 -0.000002 0.000001 0.000002 0.620408 3.819982 -4.640189 -23.769943 -12.176279 -4.575171 0.011539 23.001593 -0.035475 -3.181771 -0.799383 11.998071 -0.512445 3.948897 3.623360 5.409278 -26.719610 -10.884811 -0.285871 -3.993380 -3.634588 -0.000001 0.000001 0.000004 0.279931 4.698826 -16.640815 0.431270 -2.079519 19.148543 6.888641 -10.605591 21.430277 -0.000004 -0.000003 -0.000001 0.137593 -2.322982 -6.119615 1.820626 -6.185737 36.554308 0.224798 -1.068847 11.549589 -0.000004 -0.000001 -0.000004 -0.275530 -10.929308 3.240268 1.523849 -4.444745 32.396134 0.568461 -3.793028 19.017296 -0.000003 -0.000000 -0.000003 -0.287186 -19.490457 4.634128 2.434019 -5.415163 41.285942 0.726520 -4.493544 22.902411 -0.000000 -0.000002 -0.000001 -44.468981 13.455909 22.845706 80.091399 -9.445088 0.922566 26.173201 -6.875831 -6.463965 -17.035851 -2.267552 7.834491 0.000001 -0.000003 0.000001 -91.247721 -8.864707 0.490840 116.243481 -3.171473 -10.764447 36.601208 3.109663 12.860840 0.167671 0.000050 0.000016 0.000002 -0.000000 -0.000000 
-9.061085 77.759872 3.994480 -6.522196 -61.872245 -5.057539 30.076957 6.000886 -4.031841 9.702883 2.459820 -1.061664 9.710963 2.446401 -1.081271 -7.115310 -16.201103 -2.552965 8.219810 34.098449 -11.472647 -0.000003 -0.000002 0.000002 0.302927 5.126604 -6.172915 -27.021533 22.217707 -15.401421 -0.963686 -59.403070 9.239814 -53.252113 -5.311218 2.379473 3.131985 14.216316 -19.086504 1.083738 18.441910 20.543486 1.420084 38.788344 21.436013 -0.000000 0.000001 -0.000002 -6.497477 19.493553 -63.820598 10.929994 12.439958 -91.866283 5.624300 12.849666 -61.873823 0.000002 0.000005 -0.000000 -0.127266 16.605597 -63.663128 7.055527 8.627835 -74.067487 7.032527 10.044525 -73.182253 -0.000001 -0.000001 0.000005 3.456835 11.185548 -71.730763 6.555753 9.517402 -73.061659 5.164481 7.559215 -62.819579 -0.000002 -0.000000 0.000008 7.357291 6.884750 -66.751528 6.476867 7.446373 -77.523412 4.627893 10.066111 -62.797961 -0.000002 0.000001 0.000002 0.620408 3.819982 -4.640189 -23.769943 -12.176279 -4.575171 0.011539 23.001593 -0.035475 -3.181771 -0.799383 11.998071 -0.512445 3.948897 3.623360 5.409278 -26.719610 -10.884811 -0.285871 -3.993380 -3.634588 -0.000001 0.000001 0.000004 0.279931 4.698826 -16.640815 0.431270 -2.079519 19.148543 6.888641 -10.605591 21.430277 -0.000004 -0.000003 -0.000001 0.137593 -2.322982 -6.119615 1.820626 -6.185737 36.554308 0.224798 -1.068847 11.549589 -0.000004 -0.000001 -0.000004 -0.275530 -10.929308 3.240268 1.523849 -4.444745 32.396134 0.568461 -3.793028 19.017296 -0.000003 -0.000000 -0.000003 -0.287186 -19.490457 4.634128 2.434019 -5.415163 41.285942 0.726520 -4.493544 22.902411 -0.000000 -0.000002 -0.000001 -44.468981 13.455909 22.845706 80.091399 -9.445088 0.922566 26.173201 -6.875831 -6.463965 -17.035851 -2.267552 7.834491 0.000001 -0.000003 0.000001 -91.247721 -8.864707 0.490840 116.243481 -3.171473 -10.764447 36.601208 3.109663 12.860840 0.167671 0.000050 0.000016 0.000002 -0.000000 -0.000000 
